<svg id="law_1_" data-name="law (1)" xmlns="http://www.w3.org/2000/svg" width="26.652" height="26.648" viewBox="0 0 26.652 26.648">
  <g id="Group_2837" data-name="Group 2837" transform="translate(0 21.008)">
    <g id="Group_2836" data-name="Group 2836">
      <path id="Path_18911" data-name="Path 18911" d="M15.322,387.484H2a2,2,0,0,0-2,2v3.639H17.323v-3.639A2,2,0,0,0,15.322,387.484Z" transform="translate(0 -387.484)" fill="#fb9d02"/>
    </g>
  </g>
  <g id="Group_2839" data-name="Group 2839" transform="translate(3.266 0)">
    <g id="Group_2838" data-name="Group 2838" transform="translate(0 0)">
      <path id="Path_18912" data-name="Path 18912" d="M83.258,21.321,71.1,9.161l2.349-2.344A.986.986,0,0,0,74.8,5.38L69.733.321a.983.983,0,0,0-1.391,1.391L68.3,1.67,61.871,8.1l.042.046a.983.983,0,0,0-1.391,1.391L65.581,14.6A.986.986,0,1,0,66.976,13.2l.042.042L69.367,10.9,81.522,23.053a1.226,1.226,0,0,0,1.736-1.732Z" transform="translate(-60.231 -0.03)" fill="#fb9d02"/>
    </g>
  </g>
</svg>
