<svg id="STC-pay" xmlns="http://www.w3.org/2000/svg" width="110.567" height="32.508" viewBox="0 0 110.567 32.508">
  <path id="Path_20385" data-name="Path 20385" d="M603.8,455.9V438.732h2.912v1.377a4.7,4.7,0,0,1,3.83-1.709c3.355,0,5.761,2.675,5.761,6.5s-2.422,6.552-5.761,6.552a4.7,4.7,0,0,1-3.83-1.741V455.9Zm2.912-12.582v3.165a3.6,3.6,0,0,0,3.324,2.216c1.931,0,3.229-1.44,3.229-3.814,0-2.342-1.3-3.767-3.229-3.767a3.565,3.565,0,0,0-3.324,2.2" transform="translate(-532.088 -431.895)" fill="#02aa7c"/>
  <path id="Path_20386" data-name="Path 20386" d="M694.7,449.247a3.658,3.658,0,0,1,3.45-3.814l4.954-.633v-.617a1,1,0,0,0-1.076-1.14h-6.22V440.4h6.331c2.516,0,3.893,1.234,3.893,3.419v8.942h-2.944v-1.5A4.769,4.769,0,0,1,699,453.141c-2.564,0-4.3-1.567-4.3-3.893m5.017,1.519a3.625,3.625,0,0,0,3.371-2.073v-1.551l-3.783.522c-1.045.142-1.63.7-1.63,1.6,0,.965.744,1.5,2.042,1.5" transform="translate(-608.602 -433.579)" fill="#02aa7c"/>
  <path id="Path_20387" data-name="Path 20387" d="M776.754,454.945h2.121a1.345,1.345,0,0,0,1.44-1.092l.38-1.092L776.2,440.4h3.039l2.8,8.61h.063l2.675-8.61h2.991l-4.922,14.2c-.665,1.947-1.551,2.991-3.719,2.991h-2.374Z" transform="translate(-677.203 -433.579)" fill="#02aa7c"/>
  <path id="Path_20388" data-name="Path 20388" d="M161.383,429.808a11.341,11.341,0,0,0,8.008-2.833,7.341,7.341,0,0,0,2.184-5.318,6.885,6.885,0,0,0-2.026-4.954,10.586,10.586,0,0,0-5.571-2.738l-3.893-.76c-1.614-.3-2.532-1.108-2.532-2.232,0-1.472,1.424-2.485,3.7-2.485a4.806,4.806,0,0,1,3.45,1.266,3.831,3.831,0,0,1,.965,2.073l5.619-1.266a6.937,6.937,0,0,0-2.073-4.21,11.35,11.35,0,0,0-8.024-2.975A10.981,10.981,0,0,0,153.739,406a7.394,7.394,0,0,0-2.374,5.476,6.3,6.3,0,0,0,1.82,4.653,11.092,11.092,0,0,0,5.318,2.691l3.846.918c1.931.459,2.786,1.171,2.786,2.437,0,1.567-1.424,2.485-3.751,2.485a5.209,5.209,0,0,1-3.893-1.472,3.535,3.535,0,0,1-1.013-2.327l-5.777,1.266a7.224,7.224,0,0,0,2.184,4.463,11.721,11.721,0,0,0,8.5,3.213m42.764,0a12.014,12.014,0,0,0,8.61-3.292A11.254,11.254,0,0,0,215.8,421.4l-5.919-1.978a5.621,5.621,0,0,1-1.567,2.627,5.756,5.756,0,0,1-4.162,1.567,6.406,6.406,0,0,1-4.511-1.82,7.343,7.343,0,0,1-1.883-5.223,7.262,7.262,0,0,1,1.883-5.223,6.161,6.161,0,0,1,4.463-1.773,5.371,5.371,0,0,1,4,1.519,6.448,6.448,0,0,1,1.519,2.691l6.03-2.026a11.528,11.528,0,0,0-2.833-5.017,12.33,12.33,0,0,0-8.863-3.387,12.8,12.8,0,0,0-9.164,3.7,13.849,13.849,0,0,0,.095,19.056,12.939,12.939,0,0,0,9.259,3.688m-20.464,0A8.466,8.466,0,0,0,189,428.289v-5.476a5.85,5.85,0,0,1-3.4,1.013,2.841,2.841,0,0,1-3.292-3.339V397.3h-6.695v6.837h13.374v6.489H175.612v11.506a7.739,7.739,0,0,0,1.978,5.524,8.476,8.476,0,0,0,6.093,2.152" transform="translate(-150.7 -397.3)" fill="#502c84"/>
</svg>
