<svg xmlns="http://www.w3.org/2000/svg" width="16.047" height="11.233" viewBox="0 0 16.047 11.233">
  <path id="Icon_awesome-money-bill-wave-alt" data-name="Icon awesome-money-bill-wave-alt" d="M15.575,2.813a7.425,7.425,0,0,0-2.919-.563c-3.088,0-6.176,1.563-9.265,1.563a7.607,7.607,0,0,1-2.323-.344.857.857,0,0,0-.26-.041.8.8,0,0,0-.809.8v7.955a.8.8,0,0,0,.472.739,7.421,7.421,0,0,0,2.919.563c3.088,0,6.177-1.563,9.265-1.563a7.608,7.608,0,0,1,2.323.344.857.857,0,0,0,.26.041.8.8,0,0,0,.809-.8V3.552A.8.8,0,0,0,15.575,2.813Zm-7.551,7.46A2.234,2.234,0,0,1,6.018,7.866,2.234,2.234,0,0,1,8.024,5.459a2.234,2.234,0,0,1,2.006,2.407A2.234,2.234,0,0,1,8.024,10.274Z" transform="translate(0 -2.25)" opacity="0.6"/>
</svg>
