<svg xmlns="http://www.w3.org/2000/svg" xmlns:xlink="http://www.w3.org/1999/xlink" width="191.318" height="88.536" viewBox="0 0 191.318 88.536">
  <defs>
    <filter id="Path_2" x="0" y="0" width="191.318" height="88.536" filterUnits="userSpaceOnUse">
      <feOffset dy="3" input="SourceAlpha"/>
      <feGaussianBlur stdDeviation="3" result="blur"/>
      <feFlood flood-opacity="0.278"/>
      <feComposite operator="in" in2="blur"/>
      <feComposite in="SourceGraphic"/>
    </filter>
  </defs>
  <g transform="matrix(1, 0, 0, 1, 0, 0)" filter="url(#Path_2)">
    <path id="Path_2-2" data-name="Path 2" d="M1152.06,2128.876v23.043a7.9,7.9,0,0,0,8.132,7.593h1.188a7.9,7.9,0,0,0,8.132-7.593v-18.3h20.674a7.9,7.9,0,0,0,8.132-7.593v-1.109a7.9,7.9,0,0,0-8.132-7.593c-14.379,0-31.133-3.706-38.125,11.552Zm165.187-37a7.9,7.9,0,0,1,8.131,7.593c0,2.956-2.551,5.677-4.463,8.7l-6.983,10.566c-2.4-10.682-13.524-10.566-13.524-10.566h-19.013a7.9,7.9,0,0,1-8.132-7.593v-1.109a7.9,7.9,0,0,1,8.132-7.593Zm-5.581,30.289-13.913,21.051h19.493a7.9,7.9,0,0,1,8.131,7.593v1.109a7.9,7.9,0,0,1-8.131,7.593h-35.852a7.9,7.9,0,0,1-8.131-7.593c0-4.076,1.674-5.207,3.984-8.7l20.747-31.392c15.816-.884,13.672,10.341,13.672,10.341Zm-74.5-15a14.516,14.516,0,0,1,4.405.684c-5.843-10.589-15.613-16.411-26.8-8.29a35.907,35.907,0,0,0-11.309,26.353c0,19.478,15.092,35.268,33.707,35.268s33.707-15.79,33.707-35.268-15.091-35.268-33.707-35.268a32.3,32.3,0,0,0-12.166,2.37c18.064,3.581,28.573,16.366,28.573,32.9,0,10.354-7.346,18.748-16.407,18.748s-16.407-8.394-16.407-18.748,7.346-18.748,16.407-18.748Zm-67.656,5.839v-4.837h23.428a7.9,7.9,0,0,0,8.132-7.593v-1.109a7.9,7.9,0,0,0-8.132-7.593h-33.7v.053a7.827,7.827,0,0,0-7.175,7.54v24.6C1155.455,2118.7,1160.938,2113.473,1169.511,2113.009Z" transform="translate(-1143.06 -2084.65)" fill="#f2f2f2" fill-rule="evenodd"/>
  </g>
</svg>
