<svg xmlns="http://www.w3.org/2000/svg" width="15.975" height="16.862" viewBox="0 0 15.975 16.862">
  <path id="Icon_metro-location-city" data-name="Icon metro-location-city" d="M17.077,13.129V7.8L14.414,5.141,11.752,7.8V9.579H6.427V22H22.4V13.129H17.077Zm-7.1,7.1H8.2V18.454H9.977Zm0-3.55H8.2V14.9H9.977Zm0-3.55H8.2V11.354H9.977Zm5.325,7.1H13.527V18.454H15.3Zm0-3.55H13.527V14.9H15.3Zm0-3.55H13.527V11.354H15.3Zm0-3.55H13.527V7.8H15.3Zm5.325,10.65H18.851V18.454h1.775v1.775Zm0-3.55H18.851V14.9h1.775Z" transform="translate(-6.427 -5.141)" opacity="0.6"/>
</svg>
