<svg xmlns="http://www.w3.org/2000/svg" width="17.129" height="27.407" viewBox="0 0 17.129 27.407">
  <path id="Icon_awesome-mobile-alt" data-name="Icon awesome-mobile-alt" d="M14.56,0H2.569A2.57,2.57,0,0,0,0,2.569V24.837a2.57,2.57,0,0,0,2.569,2.569H14.56a2.57,2.57,0,0,0,2.569-2.569V2.569A2.57,2.57,0,0,0,14.56,0Zm-6,25.694a1.713,1.713,0,1,1,1.713-1.713A1.711,1.711,0,0,1,8.565,25.694Zm6-5.781a.644.644,0,0,1-.642.642H3.212a.644.644,0,0,1-.642-.642V3.212a.644.644,0,0,1,.642-.642H13.917a.644.644,0,0,1,.642.642Z" opacity="0.29"/>
</svg>
