<svg xmlns="http://www.w3.org/2000/svg" width="62" height="62" viewBox="0 0 62 62">
  <g id="top" transform="translate(61.734 61.638) rotate(180)">
    <circle id="Ellipse_12" data-name="Ellipse 12" cx="31" cy="31" r="31" transform="translate(61.734 61.638) rotate(180)" fill="#fb9d02"/>
    <g id="icons_back" data-name="icons/back" transform="translate(17.074 17.074)">
      <rect id="bg" width="28" height="28" transform="translate(-0.34 -0.436)" fill="none"/>
      <g id="ico" transform="translate(5.691 5.954)">
        <path id="union" d="M7.1,15.129l-6.7-6.7a.854.854,0,0,1-.3-1.14A.85.85,0,0,1,.355,7L7.1.25A.854.854,0,0,1,8.312,1.457L2.917,6.852H17.359a.854.854,0,1,1,0,1.707H2.949l5.362,5.362A.854.854,0,0,1,7.1,15.129Z" fill="#fff"/>
      </g>
    </g>
  </g>
</svg>
