<svg xmlns="http://www.w3.org/2000/svg" width="19.241" height="21.379" viewBox="0 0 19.241 21.379">
  <path id="Icon_material-date-range" data-name="Icon material-date-range" d="M10.914,12.62H8.776v2.138h2.138Zm4.276,0H13.051v2.138h2.138Zm4.276,0H17.327v2.138h2.138ZM21.6,5.138H20.534V3H18.4V5.138H9.845V3H7.707V5.138H6.638A2.128,2.128,0,0,0,4.511,7.276L4.5,22.241a2.137,2.137,0,0,0,2.138,2.138H21.6a2.144,2.144,0,0,0,2.138-2.138V7.276A2.144,2.144,0,0,0,21.6,5.138Zm0,17.1H6.638V10.483H21.6Z" transform="translate(-4.5 -3)" opacity="0.6"/>
</svg>
