<svg xmlns="http://www.w3.org/2000/svg" xmlns:xlink="http://www.w3.org/1999/xlink" width="264.327" height="118.249" viewBox="0 0 264.327 118.249">
  <defs>
    <linearGradient id="linear-gradient" y1="0.5" x2="1" y2="0.5" gradientUnits="objectBoundingBox">
      <stop offset="0" stop-color="#008f8f"/>
      <stop offset="1" stop-color="#ff9d00"/>
    </linearGradient>
    <filter id="Path_2" x="0" y="0" width="264.327" height="118.249" filterUnits="userSpaceOnUse">
      <feOffset dy="3" input="SourceAlpha"/>
      <feGaussianBlur stdDeviation="3" result="blur"/>
      <feFlood flood-opacity="0.278"/>
      <feComposite operator="in" in2="blur"/>
      <feComposite in="SourceGraphic"/>
    </filter>
  </defs>
  <g transform="matrix(1, 0, 0, 1, 0, 0)" filter="url(#Path_2)">
    <path id="Path_2-2" data-name="Path 2" d="M1152.06,2144.978v32.75c0,5.935,5.2,10.791,11.557,10.791h1.688c6.357,0,11.557-4.856,11.557-10.791v-26.009h29.383c6.356,0,11.557-4.856,11.557-10.791v-1.576c0-5.935-5.2-10.791-11.557-10.791-20.436,0-44.248-5.267-54.185,16.418Zm234.77-52.583c6.354,0,11.557,4.856,11.557,10.791,0,4.2-3.626,8.069-6.344,12.367l-9.925,15.017c-3.408-15.182-19.221-15.017-19.221-15.017h-27.022c-6.354,0-11.557-4.856-11.557-10.791v-1.576c0-5.935,5.2-10.791,11.557-10.791Zm-7.932,43.048-19.773,29.918h27.7c6.354,0,11.557,4.856,11.557,10.791v1.576c0,5.935-5.2,10.791-11.557,10.791h-50.955c-6.354,0-11.557-4.856-11.557-10.791,0-5.793,2.379-7.4,5.662-12.367l29.486-44.615c22.478-1.256,19.432,14.7,19.432,14.7Zm-105.881-21.313a20.634,20.634,0,0,1,6.261.972c-8.3-15.05-22.189-23.323-38.094-11.781a51.031,51.031,0,0,0-16.073,37.454c0,27.683,21.449,50.124,47.906,50.124s47.906-22.441,47.906-50.124-21.448-50.125-47.906-50.125a45.906,45.906,0,0,0-17.291,3.368c25.673,5.089,40.61,23.26,40.61,46.757,0,14.715-10.44,26.645-23.318,26.645s-23.318-11.93-23.318-26.645,10.44-26.646,23.318-26.646Zm-96.155,8.3v-6.874h33.3c6.357,0,11.557-4.856,11.557-10.791v-1.576c0-5.935-5.2-10.791-11.557-10.791h-47.9v.075c-5.722.633-10.2,5.21-10.2,10.716v34.956c4.825-7.629,12.618-15.055,24.8-15.714Z" transform="translate(-1143.06 -2084.65)" fill-rule="evenodd" fill="url(#linear-gradient)"/>
  </g>
</svg>
