<svg xmlns="http://www.w3.org/2000/svg" xmlns:xlink="http://www.w3.org/1999/xlink" width="31" height="31" viewBox="0 0 31 31">
  <defs>
    <filter id="Ellipse_35" x="0" y="0" width="31" height="31" filterUnits="userSpaceOnUse">
      <feOffset dy="3" input="SourceAlpha"/>
      <feGaussianBlur stdDeviation="3" result="blur"/>
      <feFlood flood-opacity="0.541"/>
      <feComposite operator="in" in2="blur"/>
      <feComposite in="SourceGraphic"/>
    </filter>
  </defs>
  <g id="Group_3294" data-name="Group 3294" transform="translate(-281 -397)">
    <g id="Group_3293" data-name="Group 3293">
      <g transform="matrix(1, 0, 0, 1, 281, 397)" filter="url(#Ellipse_35)">
        <g id="Ellipse_35-2" data-name="Ellipse 35" transform="translate(9 6)" fill="#fb9d02" stroke="#fff" stroke-width="0.6">
          <circle cx="6.5" cy="6.5" r="6.5" stroke="none"/>
          <circle cx="6.5" cy="6.5" r="6.2" fill="none"/>
        </g>
      </g>
      <path id="Icon_awesome-check" data-name="Icon awesome-check" d="M2.889,10.8.125,8.031a.425.425,0,0,1,0-.6l.6-.6a.425.425,0,0,1,.6,0L3.19,8.69,7.178,4.7a.425.425,0,0,1,.6,0l.6.6a.425.425,0,0,1,0,.6L3.49,10.8A.425.425,0,0,1,2.889,10.8Z" transform="translate(292.4 402.003)" fill="#fff"/>
    </g>
  </g>
</svg>
