<svg xmlns="http://www.w3.org/2000/svg" xmlns:xlink="http://www.w3.org/1999/xlink" width="47" height="44" viewBox="0 0 47 44">
  <defs>
    <filter id="Icon_color" x="0" y="0" width="47" height="44" filterUnits="userSpaceOnUse">
      <feOffset dy="3" input="SourceAlpha"/>
      <feGaussianBlur stdDeviation="3" result="blur"/>
      <feFlood flood-opacity="0.161"/>
      <feComposite operator="in" in2="blur"/>
      <feComposite in="SourceGraphic"/>
    </filter>
  </defs>
  <g transform="matrix(1, 0, 0, 1, 0, 0)" filter="url(#Icon_color)">
    <path id="Icon_color-2" data-name="Icon color" d="M24.143,26H15.1A4.923,4.923,0,0,1,11.6,24.556a4.93,4.93,0,0,0-3.425-1.373H7.251V11.627h1.3a2.885,2.885,0,0,0,2.458-1.357l1.77-2.889A5.844,5.844,0,0,1,15.53,5.07l.624-.246a2.89,2.89,0,0,0,1.668-1.762L18.69.491A.726.726,0,0,1,19.372,0h.2a2.174,2.174,0,0,1,2.175,2.167V2.73A6,6,0,0,1,21.1,5.619L18.85,10.111H26.1A2.9,2.9,0,0,1,29,13v4.1a8.661,8.661,0,0,1-.624,3.22l-1.55,3.857A2.89,2.89,0,0,1,24.143,26ZM3.625,24.556H.726A.725.725,0,0,1,0,23.833v-13a.724.724,0,0,1,.726-.722h2.9a.724.724,0,0,1,.724.722v13A.724.724,0,0,1,3.625,24.556Z" transform="translate(9 6)" fill="#fff"/>
  </g>
</svg>
