<svg xmlns="http://www.w3.org/2000/svg" width="18.213" height="18.213" viewBox="0 0 18.213 18.213">
  <g id="Group_92" data-name="Group 92" transform="translate(0 0)">
    <path id="Path_2145" data-name="Path 2145" d="M79.051,222.777a4.735,4.735,0,1,1,4.385-4.722A4.568,4.568,0,0,1,79.051,222.777Zm0-8.094a3.382,3.382,0,1,0,3.132,3.373A3.262,3.262,0,0,0,79.051,214.682Z" transform="translate(-69.944 -213.333)" fill="#757575"/>
    <path id="Path_2146" data-name="Path 2146" d="M2.114,385.931A15.191,15.191,0,0,1,9.106,384a15.191,15.191,0,0,1,6.992,1.931,4.07,4.07,0,0,1,2.114,3.607v.617a1.9,1.9,0,0,1-1.859,1.939H1.859A1.9,1.9,0,0,1,0,390.155v-.617A4.07,4.07,0,0,1,2.114,385.931ZM1.3,390.155a.575.575,0,0,0,.558.59h14.5a.575.575,0,0,0,.558-.59v-.617a2.718,2.718,0,0,0-1.413-2.41,13.925,13.925,0,0,0-6.393-1.779,13.925,13.925,0,0,0-6.393,1.779,2.718,2.718,0,0,0-1.413,2.41Z" transform="translate(0 -373.882)" fill="#757575"/>
  </g>
</svg>
