<svg xmlns="http://www.w3.org/2000/svg" width="11.686" height="11.689" viewBox="0 0 11.686 11.689">
  <g id="Icon_ionic-ios-timer" data-name="Icon ionic-ios-timer" transform="translate(-3.938 -3.938)">
    <path id="Path_18919" data-name="Path 18919" d="M9.782,15.626A5.845,5.845,0,0,1,5.726,5.574a.469.469,0,0,1,.652.675A4.9,4.9,0,1,0,10.249,4.9V6.728a.47.47,0,1,1-.941,0V4.408a.47.47,0,0,1,.47-.47,5.844,5.844,0,0,1,0,11.689Z" fill="#fb9d02"/>
    <path id="Path_18920" data-name="Path 18920" d="M11.716,11.307,14.623,13.4A.88.88,0,0,1,13.6,14.828a.85.85,0,0,1-.2-.2l-2.089-2.908a.293.293,0,0,1,.409-.409Z" transform="translate(-4.275 -4.274)" fill="#fb9d02"/>
  </g>
</svg>
