<svg xmlns="http://www.w3.org/2000/svg" width="88.537" height="29.77" viewBox="0 0 88.537 29.77">
  <g id="Group_3119" data-name="Group 3119" transform="translate(-103.488 -557.81)">
    <g id="Group" transform="translate(103.488 558.204)">
      <path id="Shape" d="M42.833,27.773,43.906,21.4c2.959,2.429,11.921,3.117,11.921-.732S45.835,16.727,45.835,9.4c0-7.792,8.514-9.4,12.1-9.4a20.453,20.453,0,0,1,6.5,1.237L63.4,7.331C60.309,5.59,53.272,5.178,53.272,8.386s10.082,3.9,10.082,11.274c0,7.105-7.437,9.716-12.367,9.716A19.856,19.856,0,0,1,42.833,27.773ZM81.9,28.886l-.847-4.216H71.872l-1.5,4.216H62.836L73.61,2.622A3.33,3.33,0,0,1,76.944.506h5.808l5.785,28.38Zm-50.747,0L35.673.506H42.9l-4.515,28.38Zm-17.323,0L7.557,4.23A26.716,26.716,0,0,0,0,.987L.133.506H11.52c3.134,0,3.427,2.556,3.427,2.556l2.43,12.762v0l.814,4.2L25.078.506h7.776L21.36,28.886Z" transform="translate(0 0)" fill="#2566af"/>
    </g>
    <path id="Path" d="M18.219,16.195,15.67,2.7S15.362,0,12.078,0H.14L0,.508A28.954,28.954,0,0,1,11.241,6.329,23.443,23.443,0,0,1,18.219,16.195Z" transform="translate(105.345 557.81)" fill="#e6a540"/>
  </g>
</svg>
